HIERARCHY
ROOT Root
{
  OFFSET -9.9739 11.8861 8.49106
  CHANNELS 6 Xposition Yposition Zposition Zrotation Xrotation Yrotation
  JOINT Spine
  {
    OFFSET 5.3114 0 0
    CHANNELS 3 Zrotation Xrotation Yrotation
    JOINT Spine1
    {
      OFFSET 2.79004 0 0
      CHANNELS 3 Zrotation Xrotation Yrotation
      JOINT Neck
      {
        OFFSET 1.43377 0 0
        CHANNELS 3 Zrotation Xrotation Yrotation
        JOINT Head
        {
          OFFSET 1.86043 0 0
          CHANNELS 3 Zrotation Xrotation Yrotation
          End Site
          {
            OFFSET 0 0 0
          }
        }
      }
      JOINT LeftArm
      {
        OFFSET 0.0387506 0 2.55754
        CHANNELS 3 Zrotation Xrotation Yrotation
        JOINT LeftForeArm
        {
          OFFSET 4.24845 0 0
          CHANNELS 3 Zrotation Xrotation Yrotation
          JOINT LeftHand
          {
            OFFSET 4.01008 0 0
            CHANNELS 3 Zrotation Xrotation Yrotation
            End Site
            {
              OFFSET 0 0 0
            }
          }
        }
      }
      JOINT RightArm
      {
        OFFSET 0.0387506 0 -2.55754
        CHANNELS 3 Zrotation Xrotation Yrotation
        JOINT RightForeArm
        {
          OFFSET -4.24845 0 0
          CHANNELS 3 Zrotation Xrotation Yrotation
          JOINT RightHand
          {
            OFFSET -4.01009 0 0
            CHANNELS 3 Zrotation Xrotation Yrotation
            End Site
            {
              OFFSET 0 0 0
            }
          }
        }
      }
    }
  }
  JOINT LeftUpLeg
  {
    OFFSET -1.23318 0 2.05692
    CHANNELS 3 Zrotation Xrotation Yrotation
    JOINT LeftLeg
    {
      OFFSET 5.46397 0 0
      CHANNELS 3 Zrotation Xrotation Yrotation
      JOINT LeftFoot
      {
        OFFSET 4.68898 0 0
        CHANNELS 3 Zrotation Xrotation Yrotation
        End Site
        {
          OFFSET 0 0 0
        }
      }
    }
  }
  JOINT RightUpLeg
  {
    OFFSET -1.24454 0 -2.05007
    CHANNELS 3 Zrotation Xrotation Yrotation
    JOINT RightLeg
    {
      OFFSET -5.46397 0 0
      CHANNELS 3 Zrotation Xrotation Yrotation
      JOINT RightFoot
      {
        OFFSET -4.68901 0 0
        CHANNELS 3 Zrotation Xrotation Yrotation
        End Site
        {
          OFFSET 0 0 0
        }
      }
    }
  }
}
MOTION
Frames:	23
Frame Time:	0.0416667
-8.9567 11.5279 8.68157 -105.096 2.91999 177.407 -5.78319 -2.63237 3.18785 5.34839 -0.633712 1.66976 -4.08609 0.907276 -2.04236 -0.614241 2.14266 -0.0155424 1.69448 -48.6211 -160.879 66.3415 13.3013 36.2268 -3.0557 -20.7715 173.894 -173.306 -39.0642 -155.353 55.8908 8.30006 31.5774 -0.455303 -3.23572 174.441 -29.9764 -6.74119 -177.348 -73.8827 1.09931 0.164972 19.9281 1.25436 -178.981 131.199 -5.1991 178.763 -44.6993 0.750918 -0.515704 -2.51002 7.56409 -179.587 
-8.75637 11.6003 8.86127 -105.215 1.21647 177.682 -5.73723 -1.67339 2.70234 5.61554 -0.357642 1.82252 -4.52244 0.279883 -2.56477 -1.45761 0.941202 0.540659 0.614063 -48.669 -158.574 62.9915 11.5958 34.8196 -2.82398 -19.3185 173.974 -176.265 -38.426 -154.636 56.3122 8.48305 31.7786 -0.596948 -4.24108 174.435 -33.8868 -4.8985 -177.632 -72.3131 1.06429 0.128621 23.4545 -1.67553 -178.195 132.535 -5.65112 178.54 -45.3519 0.733106 -0.503207 0.368428 6.8233 -179.741 
-8.54349 11.6431 9.01394 -105.479 -0.3354 177.869 -5.8683 -1.32127 2.55212 5.4501 -0.272697 1.59684 -4.8894 -0.112736 -3.07838 -1.35082 0.239726 1.21645 1.1875 -46.7216 -155.773 59.7351 10.0283 33.3737 -2.54847 -17.5564 174.061 -177.259 -37.5214 -153.78 57.7907 9.13868 32.475 -0.761309 -5.40536 174.425 -37.8923 -3.26941 -178.187 -67.9276 1.07169 0.0173358 24.9207 -0.226521 -178.559 133.467 -5.49974 178.492 -46.2657 0.724257 -0.500989 2.94167 6.89845 -179.858 
-8.33838 11.6682 9.13311 -105.933 -1.80458 177.957 -5.95878 -1.40748 2.58015 5.45834 -0.299014 1.538 -5.45938 -0.418743 -3.43004 -1.30353 -0.337809 1.31562 2.08766 -43.2887 -153.376 56.3537 8.50154 31.7977 -2.29391 -15.8969 174.134 -177.178 -35.9864 -152.26 59.2372 9.79626 33.1471 -0.752653 -5.34384 174.426 -41.2784 -2.01862 -178.89 -62.8318 1.05932 -0.10755 26.687 0.37408 -178.701 134.104 -5.10245 178.57 -47.1225 0.712796 -0.499515 4.92048 7.33552 -179.966 
-8.14541 11.6982 9.22647 -106.078 -2.48603 177.955 -5.52906 -1.14064 2.71129 5.40006 -0.22451 1.52074 -5.55663 -0.637078 -3.53417 -1.88962 -0.790668 1.35214 3.90997 -38.747 -150.794 52.7629 6.99624 30.0506 -1.99703 -13.9258 174.211 -176.379 -33.4358 -150.756 59.235 9.79514 33.1462 -0.625633 -4.44448 174.433 -43.617 -1.33999 -179.159 -58.0937 1.02973 -0.220318 26.0135 1.08186 -178.929 135.068 -4.86001 178.277 -47.3647 0.701686 -0.498144 6.26733 7.83581 179.922 
-7.97346 11.7165 9.30338 -106.431 -2.42641 177.942 -5.17099 -0.879053 2.83236 5.47602 -0.136037 1.76861 -5.229 -0.658514 -3.74325 -2.8071 -0.823345 1.57241 6.72133 -33.0936 -148.352 49.3015 5.6626 28.3019 -2.05753 -14.3306 174.196 -174.518 -30.0962 -148.877 57.548 9.02858 32.3627 -0.436702 -3.10388 174.442 -45.3623 -0.99082 -179.123 -53.953 0.992499 -0.316771 24.8616 1.61076 -179.086 135.459 -4.75683 177.76 -47.5635 0.695632 -0.496195 7.20561 8.29267 179.821 
-7.85237 11.7107 9.36688 -107.036 -1.63728 178.235 -4.46111 -0.280446 2.52561 5.37664 0.0178463 1.63781 -4.80366 -0.570762 -3.43409 -4.21482 -0.75959 1.75747 11.2965 -26.564 -145.013 46.0589 4.52112 26.6118 -2.20694 -15.3233 174.158 -172.065 -25.5611 -147.884 55.288 8.04292 31.286 -0.288333 -2.05047 174.449 -46.3106 -0.515488 -178.922 -53.051 0.974553 -0.338432 23.9443 1.16233 -178.873 135.026 -4.56402 177.457 -47.9231 0.686676 -0.491127 7.24732 9.44255 179.668 
-7.76462 11.6854 9.41772 -107.774 -0.809379 178.568 -3.02756 0.138661 2.04546 5.29111 0.122267 1.58785 -4.98366 -0.48013 -3.21318 -5.86448 -0.719651 1.81875 16.1509 -19.0468 -142.115 42.9662 3.53179 24.9574 -2.13096 -14.8195 174.177 -169.462 -20.0894 -147.132 51.9692 6.68108 29.6541 -0.160076 -1.13895 174.454 -46.5866 -0.488718 -178.77 -53.4444 0.963981 -0.329845 24.3184 0.0284471 -178.441 134.1 -4.24423 177.287 -48.6268 0.685124 -0.480727 7.05952 10.7051 179.503 
-7.68258 11.6565 9.45862 -108.873 0.0676179 179.06 -1.29431 0.497728 1.19284 5.4636 0.223356 1.65187 -5.76388 -0.409876 -3.10143 -7.51244 -0.707509 1.77956 20.7177 -10.6594 -140.525 40.0703 2.69207 23.3765 -2.16894 -15.0716 174.168 -166.173 -13.6453 -146.74 48.5872 5.40048 27.9349 -0.102695 -0.730988 174.458 -47.3306 -0.306472 -178.717 -53.8625 0.953199 -0.317405 24.7267 -0.720601 -178.148 132.759 -4.19311 177.205 -49.3008 0.684489 -0.469551 6.58683 11.507 179.469 
-7.6095 11.612 9.48148 -110.804 0.656254 179.243 -0.0207913 0.909523 0.845276 5.45905 0.330561 1.40922 -4.82289 -0.566838 -3.61223 -11.227 -1.08498 2.53513 24.8584 -2.13116 -140.17 36.9023 1.87436 21.614 -2.41519 -16.6912 174.1 -162.269 -6.33702 -147.289 44.6846 4.06942 25.8812 -0.161201 -1.14774 174.459 -49.4617 -0.0379962 -178.478 -54.9477 0.957019 -0.295003 25.3055 -1.13052 -177.973 130.451 -4.35659 176.849 -50.107 0.685056 -0.452711 6.35143 11.7677 179.47 
-7.55411 11.5403 9.48632 -113.436 1.00269 178.922 0.889578 1.91135 1.12757 5.24573 0.596557 0.990159 -3.57412 -1.23561 -4.25538 -15.014 -2.45067 3.34614 27.2146 6.2611 -140.327 33.3219 1.07425 19.588 -2.35158 -16.2726 174.117 -157.573 1.86173 -149.172 40.9165 2.92781 23.8423 -0.147049 -1.04683 174.46 -52.8745 -0.59473 -178.176 -56.5538 0.963573 -0.258865 25.9981 -1.44211 -177.832 127.18 -4.31889 176.154 -51.1014 0.690712 -0.432096 6.3057 11.7479 179.446 
-7.51721 11.4663 9.48547 -115.784 0.976867 178.89 2.40867 2.79647 1.29949 4.43307 0.857258 1.27374 -0.20514 -1.98312 -5.96531 -20.7227 -3.71308 4.39948 30.5103 12.6659 -141.681 30.5952 0.552883 18.0241 -2.30997 -15.9902 174.124 -151.055 9.84901 -151.655 38.5904 2.29622 22.5578 -0.180949 -1.28831 174.46 -55.9249 -1.08643 -178.426 -57.7724 0.969195 -0.229677 26.6301 -1.61795 -177.737 123.927 -4.23001 176.014 -52.6788 0.705373 -0.409594 6.99591 12.3679 179.204 
-7.49637 11.3832 9.48346 -118.583 0.708646 179.066 4.74165 3.74937 1.05916 4.37958 1.1337 1.08512 0.364525 -2.52632 -6.62088 -25.5288 -4.90187 5.05794 33.9817 16.0273 -143.13 29.2527 0.325209 17.248 -2.36399 -16.3483 174.111 -145.913 17.2898 -156.56 37.2807 1.966 21.8264 -0.262983 -1.87259 174.459 -59.4459 -1.34001 -178.967 -58.83 0.977541 -0.203141 27.4884 -1.68122 -177.675 119.964 -4.3159 176.178 -54.4662 0.714612 -0.379216 8.05373 13.3589 178.804 
-7.48947 11.2723 9.47463 -122.474 0.36275 179.121 6.28017 3.97467 1.094 4.49319 1.19861 0.828922 0.156775 -2.58319 -6.67962 -29.6534 -5.12743 5.00878 37.5724 17.864 -146.148 28.0997 0.144802 16.5786 -2.39926 -16.5873 174.105 -142.136 23.2156 -161.607 35.4471 1.53317 20.7946 -0.416866 -2.96736 174.454 -64.4417 -1.52536 -179.437 -60.1259 0.99357 -0.17074 28.4928 -1.39535 -177.765 114.664 -4.31101 176.323 -56.3946 0.722935 -0.347712 8.90925 14.7553 178.332 
-7.49003 11.1548 9.46927 -126.55 0.0519333 179.018 8.26722 3.89729 1.16329 3.99409 1.17228 0.520056 -0.0163053 -2.72703 -6.30599 -33.59 -5.61898 4.99454 39.43 19.0422 -149.689 26.0642 -0.140045 15.3918 -2.23807 -15.5288 174.149 -139.555 27.6999 -166.265 32.7191 0.953283 19.2431 -0.393087 -2.79812 174.455 -69.7497 -1.62626 -179.684 -61.6928 1.02853 -0.131951 29.6614 -0.226446 -178.284 109.17 -4.53068 176.106 -58.3867 0.726398 -0.30913 9.71649 15.4728 177.958 
-7.48271 10.9996 9.46805 -131.228 0.167216 179.098 10.0219 3.95666 0.90452 3.10548 1.18774 0.31898 -0.524576 -2.98297 -6.27215 -37.3335 -6.36121 5.4118 39.7811 18.8517 -153.374 23.908 -0.394307 14.1264 -2.02266 -14.0973 174.205 -138.343 31.2872 -169.56 29.2909 0.333874 17.2693 -0.235761 -1.67897 174.46 -75.7257 -1.43611 -179.735 -63.8498 1.04721 -0.0788983 30.6995 0.149284 -178.459 102.91 -5.28215 175.488 -60.4965 0.740833 -0.26933 10.4514 15.2237 177.766 
-7.45205 10.7924 9.46647 -136.75 0.641033 179.094 10.5989 4.16469 0.735267 1.98495 1.23671 0.238246 -0.608743 -3.20535 -6.37701 -41.2812 -6.88339 5.56224 39.7628 16.9291 -157.527 23.3541 -0.454622 13.802 -1.99472 -13.9103 174.211 -138.279 33.7519 -172.004 26.0953 -0.135097 15.4097 0.265214 1.88821 174.459 -83.0026 -1.21621 -179.314 -66.8966 1.04814 -0.00410653 30.9803 0.00195235 -178.383 95.6429 -5.51862 174.746 -62.893 0.758428 -0.222546 10.3043 14.2045 177.98 
-7.39526 10.5105 9.4649 -142.336 1.15482 179.596 10.7518 4.17149 -0.11084 0.553243 1.24288 0.367468 -0.0525229 -3.47379 -6.63943 -45.5971 -7.43395 5.71759 38.9081 13.0277 -161.679 25.0638 -0.26526 14.8063 -2.37174 -16.4073 174.113 -139.334 34.1436 -173.742 24.7412 -0.303355 14.6171 0.471331 3.35456 174.452 -90.7032 -0.465866 -178.773 -70.6892 1.0388 0.0917721 31.2359 -0.356531 -178.211 87.8292 -5.25283 174.449 -66.4782 0.765246 -0.151508 10.1281 14.2357 177.99 
-7.28739 10.1908 9.46328 -146.869 1.38262 -179.758 11.2352 3.65655 -1.05353 -1.13956 1.10817 0.362028 0.375776 -3.70165 -7.21902 -48.7427 -8.18741 6.74098 35.6699 8.33542 -164.929 27.9812 0.127692 16.5095 -2.77146 -18.9854 173.991 -142.081 30.2636 -174.501 24.9856 -0.274695 14.7605 0.20814 1.48144 174.456 -97.3422 0.795721 -178.17 -75.3204 1.04851 0.210476 32.4614 0.172455 -178.476 80.8136 -4.61016 174.583 -71.225 0.749324 -0.0554703 10.0254 15.7245 177.674 
-7.12563 9.84796 9.46152 -150.213 1.47129 -179.38 11.2856 3.20927 -1.73259 -2.59305 0.991431 0.231469 1.51122 -4.14725 -7.55774 -51.7841 -9.28054 7.20328 29.4662 2.46377 -165.956 31.397 0.698848 18.4854 -2.978 -20.2876 173.922 -146.969 23.4892 -174.525 26.9721 -0.0191401 15.9224 -0.356554 -2.53493 174.446 -102.836 2.15298 -177.364 -80.9022 1.0569 0.355346 34.2782 1.06124 -178.954 74.9353 -3.73671 174.737 -77.1171 0.71548 0.0663936 10.7185 17.4336 177.083 
-6.91169 9.54827 9.45955 -151.302 1.27602 -179.268 12.0428 2.96185 -2.08768 -3.663 0.934246 0.147266 2.35835 -4.85059 -7.9222 -54.2952 -10.5665 6.85829 19.8499 -5.47087 -164.365 34.927 1.41379 20.502 -3.15231 -21.3691 173.86 -155.298 14.5515 -173.54 30.5457 0.544124 17.9958 -1.19845 -8.46418 174.366 -105.588 3.2981 -176.711 -86.5413 1.07439 0.501784 36.0984 2.36156 -179.736 71.2614 -3.60923 174.601 -84.0265 0.681316 0.211206 11.71 17.839 176.649 
-6.67032 9.26967 9.45539 -150.314 1.09532 -178.9 12.9218 2.74795 -2.72527 -4.51416 0.899101 0.242124 2.82993 -5.16496 -7.8096 -55.5175 -10.857 5.98149 8.08525 -14.665 -161.588 39.4541 2.52563 23.0358 -3.48765 -23.4056 173.732 -167.082 4.05321 -171.195 35.1023 1.45554 20.5997 -2.24801 -15.5945 174.147 -106.197 4.20473 -176.247 -92.8123 1.05837 0.66204 37.492 3.28118 179.671 69.3171 -3.54508 174.429 -91.7107 0.613456 0.372424 10.9062 17.2953 176.961 
-6.41856 9.0176 9.44938 -147.8 0.828607 -178.992 12.8385 2.43664 -2.76628 -4.41009 0.813264 0.25872 1.98679 -4.97429 -7.82855 -53.647 -10.6205 6.38744 -6.10839 -24.3137 -159.171 44.6664 4.06009 25.8737 -3.92891 -25.9909 173.548 177.527 -7.04928 -168.531 40.1345 2.70831 23.4122 -3.22733 -21.8302 173.833 -105.382 4.89078 -175.763 -99.2425 1.01971 0.820537 38.1055 4.33265 179.03 69.9844 -3.06872 174.76 -98.193 0.522957 0.505083 10.3747 17.3257 177.086 
